<?xml version="1.0" encoding="UTF-8"?>
<svg width="102px" height="30px" viewBox="0 0 102 30" version="1.1" xmlns="http://www.w3.org/2000/svg">
    <title>实验楼 Logo</title>
    <g id="saas教师中心" stroke="none" stroke-width="1" fill="none" fill-rule="evenodd">
        <g id="课程详情页-加入课程后-有你将学到" transform="translate(-149.000000, -20.000000)" fill="#2E7EEE">
            <g id="分组" transform="translate(149.000000, 14.000000)">
                <path d="M85.4816185,30.1436795 L85.4816185,35.5228703 L83.7128324,35.5228703 L83.7128324,30.1436795 L85.4816185,30.1436795 Z M97.8527168,30.1436795 C99.9440462,30.1436795 101.629595,31.3402113 101.629595,32.8280726 C101.629595,34.3159338 99.9336416,35.5228703 97.8527168,35.5228703 C95.7717919,35.5228703 94.023815,34.3055292 94.023815,32.8280726 C94.023815,31.3506159 95.7717919,30.1436795 97.8527168,30.1436795 Z M78.7290173,30.1436795 C80.622659,30.1436795 82.505896,31.3402113 82.505896,32.8280726 C82.505896,33.604114 82.1096185,34.3037305 81.4012163,34.7955256 L82.505896,35.5124656 L81.4342197,35.5124656 L80.8242862,35.1182128 C80.2488812,35.3747082 79.5419555,35.5228703 78.7290173,35.5228703 C76.8249711,35.5228703 74.9001156,34.3055292 74.9001156,32.8280726 C74.9001156,31.3506159 76.3671676,30.1436795 78.7290173,30.1436795 Z M50.3556069,30.1436795 L50.3556069,34.919402 L54.2989595,34.919402 L54.2989595,35.5124656 L48.5556069,35.5124656 L48.5556069,30.1436795 L50.3556069,30.1436795 Z M90.9128324,30.1436795 L94.0654335,35.5124656 L92.2758382,35.5124656 L91.3810405,33.9829859 L88.0827746,33.9829859 L87.1983815,35.5124656 L86.3660116,35.5124656 L89.4873988,30.1436795 L90.9128324,30.1436795 Z M60.0110983,30.1436795 L63.2157225,35.5124656 L61.4261272,35.5124656 L60.5209249,33.9829859 L57.2330636,33.9829859 L56.3486705,35.5124656 L55.4538728,35.5124656 L58.5752601,30.1436795 L60.0110983,30.1436795 Z M66.0873988,30.1436795 L70.2388439,34.4824078 L70.2388439,30.1436795 L71.1336416,30.1436795 L71.1336416,35.5124656 L69.3960694,35.5124656 L65.1926012,30.9656448 L65.1926012,35.5124656 L64.2978035,35.5124656 L64.2978035,30.1436795 L66.0873988,30.1436795 Z M33.3440462,34.367957 C31.5897752,35.0971178 29.7085601,35.4719464 27.8087861,35.4708495 C26.0583312,35.4711014 24.3237878,35.1517447 22.6901804,34.5297506 L22.2839306,34.367957 L33.3440462,34.367957 Z M20.7544509,34.367957 C18.9999398,35.0963283 17.1188839,35.4711252 15.2191908,35.4708509 C13.4686357,35.4721167 11.7339026,35.1528017 10.1005199,34.5299765 L9.69433526,34.367957 L20.7544509,34.367957 Z M97.8527168,30.5910783 C97.2707288,30.5892127 96.7145547,30.8311534 96.3191454,31.2581954 C95.9237361,31.6852375 95.7252296,32.2583519 95.7717919,32.8384772 C95.7111409,33.4198949 95.9055306,33.9990518 96.3046795,34.426141 C96.7038283,34.8532303 97.26853,35.0863012 97.8527168,35.0650668 C98.4262269,35.0761916 98.9760058,34.8363471 99.357965,34.4083928 C99.7399241,33.9804386 99.9159833,33.4070404 99.84,32.8384772 C99.9153365,32.2680225 99.7397187,31.6929181 99.3585547,31.2618634 C98.9773906,30.8308088 98.4281032,30.5861252 97.8527168,30.5910783 Z M78.7290173,30.5910783 C78.1407883,30.5690284 77.5722408,30.8048532 77.1723126,31.2367757 C76.7723844,31.6686981 76.5809261,32.2536796 76.6480925,32.8384772 C76.583833,33.4206976 76.7769937,34.0019532 77.1769505,34.429907 C77.5769073,34.8578607 78.1437859,35.0898472 78.7290173,35.0650668 C79.2055608,35.0713979 79.6649096,34.9054923 80.0253476,34.6032968 L79.5821965,34.3159338 L80.1336416,33.9725812 L80.4179861,34.1577116 C80.6676734,33.7694935 80.77547,33.3028201 80.7163006,32.8384772 C80.7916371,32.2680225 80.6160193,31.6929181 80.2348553,31.2618634 C79.8536912,30.8308088 79.3044038,30.5861252 78.7290173,30.5910783 Z M19.1417341,32.5783616 C19.156557,32.589073 19.1713996,32.5997562 19.1862616,32.6104112 L36.4862428,32.6095755 C36.0895054,32.8955612 35.6795142,33.1625337 35.2576619,33.4096169 L34.8319075,33.6500379 L20.806474,33.6500379 C20.7876251,33.6399489 20.768799,33.6298191 20.7499958,33.6196483 L8.20647399,33.618824 C7.77476427,33.388709 7.35585101,33.1355917 6.95152964,32.8606012 L6.55213873,32.5783616 L19.1417341,32.5783616 Z M58.8249711,31.1945466 L57.5139884,33.4627546 L60.2191908,33.4627546 L58.8249711,31.1945466 Z M89.7267052,31.1945466 L88.4261272,33.4627546 L91.1209249,33.4627546 L89.7267052,31.1945466 Z M14.6781503,30.7783616 C15.5265934,31.0667388 16.408665,31.2424151 17.301735,31.3013188 L17.6850867,31.319402 L17.4210694,31.0527835 L17.4210694,31.0527835 L17.1648555,30.7783616 L27.257341,30.7783616 C28.3195196,31.1388985 29.4339096,31.3217006 30.5556069,31.319402 C31.5380482,31.3331606 32.5166345,31.2057059 33.4614911,30.9415474 L33.8642775,30.8199801 L38.4006936,30.8199801 C38.1823574,31.0637226 37.9552034,31.2993453 37.719697,31.526383 L37.3602312,31.8604425 L18.2677457,31.8604425 C18.2525134,31.8468137 18.2372194,31.8331231 18.2218827,31.8193802 L5.61572254,31.818824 C5.37198002,31.6004877 5.1363573,31.3733338 4.90931964,31.1378274 L4.57526012,30.7783616 L14.6781503,30.7783616 Z M24.0319075,28.9887662 L24.2608092,29.1344309 C24.2683416,29.1403301 24.2758828,29.1462177 24.2834326,29.1520935 L24.3778438,29.0968726 L24.489711,29.0199801 L27.2677457,29.0199801 C27.1012717,29.2419454 26.9301734,29.4777835 26.751368,29.7120803 L26.4769942,30.0604425 L25.6342197,30.0604425 C25.6149985,30.0501783 25.5958143,30.0398482 25.5766674,30.0294526 L16.5509827,30.0292286 C16.3659093,29.8069963 16.1884613,29.5785763 16.0189385,29.3443686 L15.7706358,28.9887662 L24.0319075,28.9887662 Z M39.857341,29.0199801 C39.6908671,29.2419454 39.5197688,29.4777835 39.3440462,29.7120803 L39.0769942,30.0604425 L35.4873988,30.0604425 C35.9393193,29.8273768 36.3711062,29.5576246 36.7784495,29.2540029 L37.0793064,29.0199801 L39.857341,29.0199801 Z M11.4423121,28.9887662 C11.8398485,29.3054496 12.2604581,29.591729 12.700552,29.8452586 L13.0342197,30.0292286 L3.96138728,30.0292286 C3.77631389,29.8069963 3.59886589,29.5785763 3.42934315,29.3443686 L3.18104046,28.9887662 L11.4423121,28.9887662 Z M9.36138728,26.6581304 C9.66509939,27.1189601 10.0022459,27.5566312 10.3700258,27.9676423 L10.6515607,28.2708471 L2.69202312,28.2708471 C2.46596357,27.8797507 2.2570261,27.4790855 2.06578435,27.0699916 L1.88046243,26.6581304 L9.36138728,26.6581304 Z M28.5163006,26.6581304 C28.3564315,27.0252527 28.1843015,27.3868509 28.0002116,27.7423188 L27.7151445,28.2708471 L25.2700578,28.2708471 C25.6580582,27.8734871 26.0164922,27.4485448 26.3425815,26.999438 L26.5810405,26.6581304 L28.5163006,26.6581304 Z M41.105896,26.6581304 C40.932385,27.0740668 40.7384646,27.4810915 40.524868,27.877728 L40.3047399,28.2708471 L37.8700578,28.2708471 C38.2555863,27.8734973 38.6113152,27.4485345 38.9344448,26.9994306 L39.1706358,26.6581304 L41.105896,26.6581304 Z M21.9509827,26.6581304 C22.2549813,27.1210302 22.5945605,27.5592968 22.9665455,27.9689932 L23.2515607,28.2708471 L15.323237,28.2708471 C15.0966045,27.8813001 14.8894037,27.4808728 14.7023679,27.0710415 L14.5220809,26.6581304 L21.9509827,26.6581304 Z M72.9440462,19.88472 L72.9440462,25.118246 L74.3798844,25.118246 L74.3798844,26.4916564 L48.2018497,26.4916564 L48.2018497,25.0870321 L49.6376879,25.0870321 L49.6376879,19.88472 L72.9440462,19.88472 Z M82.8076301,6.73327487 L82.8076301,9.71940204 L86.3452023,9.71940204 L86.3452023,11.1448356 L82.8076301,11.1448356 L82.8076301,26.4604425 L80.123237,26.4604425 L80.123237,11.1448356 L76.5336416,11.1448356 L76.5336416,9.71940204 L80.123237,9.71940204 L80.123237,6.73327487 L82.8076301,6.73327487 Z M101.296647,8.52287025 L101.296647,9.87547141 L96.2608092,9.87547141 L96.2608092,12.4870321 L101.64,12.4870321 L101.64,13.9228703 L96.3960694,13.9228703 L101.64,17.3043731 L101.64,18.7402113 L99.9440462,17.7309627 L99.9440462,26.4604425 L97.1556069,26.4604425 L97.1660116,16.1286506 L96.905896,15.951772 L94.8457803,14.5887662 L93.2018497,15.6708471 L92.7544509,15.9725812 L90.8816185,26.4604425 L88.1972254,26.4604425 L89.8411561,17.5748934 L87.8018497,19.0003269 L87.8018497,17.5644887 L93.2850867,13.9228703 L87.8018497,13.9228703 L87.8018497,12.4870321 L93.1290173,12.4870321 L93.1290173,9.87547141 L88.1764162,9.87547141 L88.1764162,8.52287025 L101.296647,8.52287025 Z M79.2284393,12.1124656 L79.2284393,26.4500379 L76.5336416,26.4500379 L76.5336416,12.1124656 L79.2284393,12.1124656 Z M86.3452023,12.1124656 L86.3452023,26.4500379 L83.7128324,26.4500379 L83.7128324,12.1124656 L86.3452023,12.1124656 Z M29.2654335,24.3170899 C29.1732199,24.7270691 29.0622123,25.1325171 28.9327824,25.5321541 L28.7972254,25.9298067 L27.0076301,25.9298067 C27.2150062,25.5417555 27.3980068,25.1413209 27.5556228,24.730837 L27.7047399,24.3170899 L29.2654335,24.3170899 Z M8.22728324,24.3170899 C8.3765169,24.7633921 8.55792221,25.1981169 8.77000598,25.6178608 L8.93479769,25.9298067 L1.65156069,25.9298067 C1.50730478,25.5343411 1.38133231,25.1325221 1.27402265,24.7256282 L1.17294798,24.3170899 L8.22728324,24.3170899 Z M20.8168786,24.3170899 C20.9661123,24.7633921 21.1475176,25.1981169 21.3596014,25.6178608 L21.5243931,25.9298067 L14.2411561,25.9298067 C14.0969002,25.5343411 13.9709277,25.1325221 13.863618,24.7256282 L13.7625434,24.3170899 L20.8168786,24.3170899 Z M41.8654335,24.3170899 C41.7847599,24.6804104 41.6914973,25.0407628 41.5858259,25.397498 L41.4180347,25.9298067 L39.5972254,25.9298067 C39.8218605,25.5175502 40.0161197,25.089629 40.178526,24.6494599 L40.2943353,24.3170899 L41.8654335,24.3170899 Z M63.2677457,21.2893442 L60.0319075,21.2893442 L60.0319075,25.0870321 L63.2677457,25.0870321 L63.2677457,21.2893442 Z M56.4527168,21.2893442 L53.2168786,21.2893442 L53.2168786,25.0870321 L56.4527168,25.0870321 L56.4527168,21.2893442 Z M69.7186127,21.2893442 L66.4931792,21.2893442 L66.4931792,25.0870321 L69.7186127,25.0870321 L69.7186127,21.2893442 Z M35.4566402,8.9060945 C39.5633291,11.4704523 42.0998151,15.9217805 42.2247818,20.7464245 L42.2295954,21.0916564 L40.8249711,21.0916564 C40.8249711,15.4315358 36.2365368,10.8431015 30.5764162,10.8431015 C25.0106309,10.8431015 20.4811068,15.2798625 20.3316687,20.8095597 L20.3278613,21.0916564 L13.4399879,21.0916564 C13.4350101,17.2527523 14.9764158,13.5736307 17.7163006,10.88472 C18.1315247,10.4685663 18.5728841,10.0793359 19.0376879,9.71940204 C19.3498266,9.48009568 19.6203468,9.26159857 19.974104,9.04310146 C20.2099422,8.89743672 20.4365318,8.76102054 20.6662042,8.63077006 L21.0145665,8.43963326 L21.5347977,8.16911302 C25.9929527,6.00227292 31.252173,6.28068061 35.4566402,8.9060945 Z M26.2376879,11.8315408 C28.3458354,14.3152185 29.5384989,17.4420189 29.6245929,20.6908408 L29.6296004,21.0812518 L28.2249711,21.0812518 C28.2215772,17.9326554 26.7666977,14.9614767 24.2816185,13.0280726 C24.886376,12.5566573 25.5425814,12.1552551 26.2376879,11.8315408 Z M7.18977024,9.17558646 C11.1511554,6.50686379 16.1786187,5.97775986 20.6087861,7.76333268 C19.3482374,8.44866294 18.1920508,9.31054751 17.1752601,10.3228703 C16.9671676,10.5309627 16.7590751,10.7494598 16.5613873,10.967957 C11.5086426,11.6677669 7.74183633,15.9802943 7.72786127,21.0812518 L7.72786127,21.0812518 L0.84,21.0812518 C0.849429897,16.3047923 3.22838503,11.8443091 7.18977024,9.17558646 Z M58.939422,12.4974367 L58.939422,18.9274945 L55.3498266,18.9274945 L55.3498266,12.4974367 L58.939422,12.4974367 Z M61.540578,16.7841419 L73.1937572,17.502061 L73.1937572,18.8130437 L61.540578,18.0951246 L61.540578,16.7841419 Z M53.5602312,13.3089974 L53.5602312,18.2095755 L49.9706358,18.2095755 L49.9706358,13.3089974 L53.5602312,13.3089974 Z M65.140578,12.7159338 L65.140578,14.8072633 L73.1937572,13.9124656 L73.1937572,14.9945466 L61.540578,16.4199801 L61.540578,12.7159338 L65.140578,12.7159338 Z M56.4215029,6.73327487 L56.4215029,8.52287025 L66.1082081,8.52287025 L66.1082081,6.73327487 L69.7186127,6.73327487 L69.7186127,8.52287025 L74.3798844,8.52287025 L74.3798844,9.9587084 L69.7186127,9.9587084 L69.7186127,11.7483038 L66.1082081,11.7483038 L66.1082081,9.9587084 L56.4215029,9.9587084 L56.4215029,11.7483038 L52.8423121,11.7483038 L52.8423121,9.9587084 L48.1706358,9.9587084 L48.1706358,8.52287025 L52.8423121,8.52287025 L52.8423121,6.73327487 L56.4215029,6.73327487 Z" id="合并形状"/>
            </g>
        </g>
    </g>
</svg>